# xmcd
#
# Track frame offsets: 
#        150
#        18065
#        34788
#        46889
#        59004
#        78204
#        91866
#        104905
#        119371
#        138208
#        150021
#        170750
#        187140
#        199645
#        217934
#        228702
#        245977
#        265862
#        279672
#        297017
#        312692
#        324239
#        338642
#
# Disc length: 4751 seconds
#
# Revision: 1
# Processed by: cddbd v1.5.2PL0 Copyright (c) Steve Scherf et al.
# Submitted via: ExactAudioCopy v1.3
#
DISCID=4c128d17
DTITLE=Various Artist - Akella Presents - vol.109 - Rockin' Rollers B
DTITLE=lues  CD1
DYEAR=2017
DGENRE=Rock and Roll
TTITLE0=Shane Dwight - Roll Over Beethoven
TTITLE1=Johnny Neel - Johnny Needs a Shot
TTITLE2=Delbert McClinton - Livin' It Down
TTITLE3=Jason Buie - West Coast Daddy
TTITLE4=The Bob Lanza Blues Band - Gotta Little Girl
TTITLE5=Colin James - Big Road Blues
TTITLE6=Rick Robichaud - Give It All To You
TTITLE7=Pinetop Perkins and Friends - Take It Easy Baby
TTITLE8=Blues 'N' Trouble - Wooly Bully
TTITLE9=Big Gilson and The Wolf - Lulu Boogie
TTITLE10=Jimmy and The Soulcats - Go On
TTITLE11=Topper Price and The Upsetters - Carol
TTITLE12=Howard 'Guitar' Luedtke - Don't Start Cryin Now
TTITLE13=Terry Davidson - What the Hell Am I Doing Here
TTITLE14=The Peacemakers - Ready to go
TTITLE15=Ruthless Blues - Bad Case Of Lovin' You
TTITLE16=Pork Tornado - Move With You
TTITLE17=The Special 20s - Glad I Don't Worry No More
TTITLE18=Marc Ford - Shame On Me
TTITLE19=Barrence Whitfield - I Want Love
TTITLE20=Rick Robichaud - Hit Rock Bottom
TTITLE21=Teddy Wender and Jazzmatik - Wine
TTITLE22=Shane Dwight - Shake Your Money Maker
EXTD=
EXTT0=
EXTT1=
EXTT2=
EXTT3=
EXTT4=
EXTT5=
EXTT6=
EXTT7=
EXTT8=
EXTT9=
EXTT10=
EXTT11=
EXTT12=
EXTT13=
EXTT14=
EXTT15=
EXTT16=
EXTT17=
EXTT18=
EXTT19=
EXTT20=
EXTT21=
EXTT22=
PLAYORDER=
